<svg xmlns="http://www.w3.org/2000/svg" viewBox="0 0 271.5 400"><polygon points="0 0 0 23.1 0 345.2 0 400 8.5 392 17 400 25.5 392 33.9 400 42.4 392 50.9 400 59.4 392 67.9 400 76.4 392 84.9 400 93.3 392 101.8 400 110.3 392 118.8 400 127.3 392 135.8 400 144.3 392 152.7 400 161.2 392 169.7 400 178.2 392 186.7 400 195.2 392 203.6 400 212.1 392 220.6 400 229.1 392 237.6 400 246.1 392 254.6 400 263 392 271.5 400 271.5 345.2 271.5 23.1 271.5 0 263 7.3 254.6 0 246.1 7.3 237.6 0 229.1 7.3 220.6 0 212.1 7.3 203.6 0 195.2 7.3 186.7 0 178.2 7.3 169.7 0 161.2 7.3 152.7 0 144.3 7.3 135.8 0 127.3 7.3 118.8 0 110.3 7.3 101.8 0 93.3 7.3 84.9 0 76.4 7.3 67.9 0 59.4 7.3 50.9 0 42.4 7.3 33.9 0 25.5 7.3 17 0 8.5 7.3 0 0" style="fill:#f1f1f1;fill-rule:evenodd"/><rect x="21.7" y="93.3" width="8.4" height="2" style="fill:#ccc"/><rect x="33.3" y="93.3" width="8.4" height="2" style="fill:#ccc"/><rect x="44.8" y="93.3" width="8.4" height="2" style="fill:#ccc"/><rect x="56.4" y="93.3" width="8.4" height="2" style="fill:#ccc"/><rect x="68" y="93.3" width="8.4" height="2" style="fill:#ccc"/><rect x="79.5" y="93.3" width="8.4" height="2" style="fill:#ccc"/><rect x="91.1" y="93.3" width="8.4" height="2" style="fill:#ccc"/><rect x="102.6" y="93.3" width="8.4" height="2" style="fill:#ccc"/><rect x="114.2" y="93.3" width="8.4" height="2" style="fill:#ccc"/><rect x="125.8" y="93.3" width="8.4" height="2" style="fill:#ccc"/><rect x="137.3" y="93.3" width="8.4" height="2" style="fill:#ccc"/><rect x="148.9" y="93.3" width="8.4" height="2" style="fill:#ccc"/><rect x="160.5" y="93.3" width="8.4" height="2" style="fill:#ccc"/><rect x="172" y="93.3" width="8.4" height="2" style="fill:#ccc"/><rect x="183.6" y="93.3" width="8.4" height="2" style="fill:#ccc"/><rect x="195.1" y="93.3" width="8.4" height="2" style="fill:#ccc"/><rect x="206.7" y="93.3" width="8.4" height="2" style="fill:#ccc"/><rect x="218.3" y="93.3" width="8.4" height="2" style="fill:#ccc"/><rect x="229.8" y="93.3" width="8.4" height="2" style="fill:#ccc"/><rect x="241.4" y="93.3" width="8.4" height="2" style="fill:#ccc"/><rect x="21.7" y="227.2" width="120" height="4.8" style="fill:#b3b3b3"/><rect x="21.7" y="214.5" width="92" height="4.8" style="fill:#b3b3b3"/><rect x="21.7" y="201.8" width="74" height="4.8" style="fill:#b3b3b3"/><rect x="21.7" y="189.1" width="120" height="4.8" style="fill:#b3b3b3"/><rect x="21.7" y="176.4" width="120" height="4.8" style="fill:#b3b3b3"/><rect x="21.7" y="163.7" width="74" height="4.8" style="fill:#b3b3b3"/><rect x="21.7" y="151" width="74" height="4.8" style="fill:#b3b3b3"/><rect x="21.7" y="138.3" width="92" height="4.8" style="fill:#b3b3b3"/><rect x="21.7" y="125.6" width="92" height="4.8" style="fill:#b3b3b3"/><rect x="21.7" y="112.9" width="120" height="4.8" style="fill:#b3b3b3"/><rect x="233.6" y="227.2" width="16.3" height="4.8" style="fill:#b3b3b3"/><rect x="222.8" y="214.5" width="27.1" height="4.8" style="fill:#b3b3b3"/><rect x="222.8" y="201.8" width="27.1" height="4.8" style="fill:#b3b3b3"/><rect x="227.2" y="189.1" width="22.6" height="4.8" style="fill:#b3b3b3"/><rect x="233.6" y="176.4" width="16.3" height="4.8" style="fill:#b3b3b3"/><rect x="233.6" y="163.7" width="16.3" height="4.8" style="fill:#b3b3b3"/><rect x="222.8" y="151" width="27.1" height="4.8" style="fill:#b3b3b3"/><rect x="227.2" y="138.3" width="22.6" height="4.8" style="fill:#b3b3b3"/><rect x="219.5" y="125.6" width="30.3" height="4.8" style="fill:#b3b3b3"/><rect x="227.2" y="112.9" width="22.6" height="4.8" style="fill:#b3b3b3"/><rect x="21.7" y="250.2" width="8.4" height="2" style="fill:#ccc"/><rect x="33.3" y="250.2" width="8.4" height="2" style="fill:#ccc"/><rect x="44.8" y="250.2" width="8.4" height="2" style="fill:#ccc"/><rect x="56.4" y="250.2" width="8.4" height="2" style="fill:#ccc"/><rect x="68" y="250.2" width="8.4" height="2" style="fill:#ccc"/><rect x="79.5" y="250.2" width="8.4" height="2" style="fill:#ccc"/><rect x="91.1" y="250.2" width="8.4" height="2" style="fill:#ccc"/><rect x="102.6" y="250.2" width="8.4" height="2" style="fill:#ccc"/><rect x="114.2" y="250.2" width="8.4" height="2" style="fill:#ccc"/><rect x="125.8" y="250.2" width="8.4" height="2" style="fill:#ccc"/><rect x="137.3" y="250.2" width="8.4" height="2" style="fill:#ccc"/><rect x="148.9" y="250.2" width="8.4" height="2" style="fill:#ccc"/><rect x="160.5" y="250.2" width="8.4" height="2" style="fill:#ccc"/><rect x="172" y="250.2" width="8.4" height="2" style="fill:#ccc"/><rect x="183.6" y="250.2" width="8.4" height="2" style="fill:#ccc"/><rect x="195.1" y="250.2" width="8.4" height="2" style="fill:#ccc"/><rect x="206.7" y="250.2" width="8.4" height="2" style="fill:#ccc"/><rect x="218.3" y="250.2" width="8.4" height="2" style="fill:#ccc"/><rect x="229.8" y="250.2" width="8.4" height="2" style="fill:#ccc"/><rect x="241.4" y="250.2" width="8.4" height="2" style="fill:#ccc"/><rect x="21.7" y="335.6" width="8.4" height="2" style="fill:#ccc"/><rect x="33.3" y="335.6" width="8.4" height="2" style="fill:#ccc"/><rect x="44.8" y="335.6" width="8.4" height="2" style="fill:#ccc"/><rect x="56.4" y="335.6" width="8.4" height="2" style="fill:#ccc"/><rect x="68" y="335.6" width="8.4" height="2" style="fill:#ccc"/><rect x="79.5" y="335.6" width="8.4" height="2" style="fill:#ccc"/><rect x="91.1" y="335.6" width="8.4" height="2" style="fill:#ccc"/><rect x="102.6" y="335.6" width="8.4" height="2" style="fill:#ccc"/><rect x="114.2" y="335.6" width="8.4" height="2" style="fill:#ccc"/><rect x="125.8" y="335.6" width="8.4" height="2" style="fill:#ccc"/><rect x="137.3" y="335.6" width="8.4" height="2" style="fill:#ccc"/><rect x="148.9" y="335.6" width="8.4" height="2" style="fill:#ccc"/><rect x="160.5" y="335.6" width="8.4" height="2" style="fill:#ccc"/><rect x="172" y="335.6" width="8.4" height="2" style="fill:#ccc"/><rect x="183.6" y="335.6" width="8.4" height="2" style="fill:#ccc"/><rect x="195.1" y="335.6" width="8.4" height="2" style="fill:#ccc"/><rect x="206.7" y="335.6" width="8.4" height="2" style="fill:#ccc"/><rect x="218.3" y="335.6" width="8.4" height="2" style="fill:#ccc"/><rect x="229.8" y="335.6" width="8.4" height="2" style="fill:#ccc"/><rect x="241.4" y="335.6" width="8.4" height="2" style="fill:#ccc"/><path d="M205.5,301.3v-6.6c-3.1-.9-3.1-.9-4.5-2.6s-1.5-1.8-1.5-4.3,0-2.6,1.6-4.3,1.7-1.8,4.4-2v-1.6h2.2v1.6c2.5.3,2.5.3,4,1.7s1.4,1.4,1.9,3.7l-4,.5c-.4-1.8-.4-1.8-1.9-2.5V291c3.8,1,3.8,1,5.1,2.7s1.4,1.6,1.4,4.1,0,2.8-1.7,4.8-1.7,1.9-4.8,2.3v3h-2.2V305c-2.7-.3-2.7-.3-4.4-2s-1.7-1.7-2.2-4.8l4.1-.4a3.2,3.2,0,0,0,.9,2.2A2.8,2.8,0,0,0,205.5,301.3Zm0-16.4c-1,.3-1,.3-1.5,1a1.9,1.9,0,0,0-.6,1.7,1.7,1.7,0,0,0,.5,1.5c.5.7.5.7,1.6,1.2Zm2.2,16.6c1.2-.2,1.2-.2,1.9-1.1s.8-.9.8-2,0-1.1-.7-1.8-.6-.8-2-1.2Z" style="fill:#334f5a;fill-rule:evenodd"/><path d="M223.3,301.3v-6.6c-3.1-.9-3.1-.9-4.5-2.6s-1.4-1.8-1.4-4.3,0-2.6,1.6-4.3,1.6-1.8,4.3-2v-1.6h2.2v1.6c2.5.3,2.5.3,4,1.7s1.5,1.4,1.9,3.7l-4,.5c-.3-1.8-.3-1.8-1.9-2.5V291c3.8,1,3.8,1,5.1,2.7s1.4,1.6,1.4,4.1,0,2.8-1.7,4.8-1.7,1.9-4.8,2.3v3h-2.2V305c-2.7-.3-2.7-.3-4.4-2s-1.7-1.7-2.2-4.8l4.1-.4a4.4,4.4,0,0,0,.9,2.2A2.8,2.8,0,0,0,223.3,301.3Zm0-16.4a2.3,2.3,0,0,0-1.5,1,2.2,2.2,0,0,0-.5,1.7,1.7,1.7,0,0,0,.5,1.5c.5.7.5.7,1.5,1.2Zm2.2,16.6c1.2-.2,1.2-.2,1.9-1.1s.8-.9.8-2,0-1.1-.6-1.8-.7-.8-2.1-1.2Z" style="fill:#334f5a;fill-rule:evenodd"/><path d="M241.1,301.3v-6.6c-3.1-.9-3.1-.9-4.5-2.6s-1.4-1.8-1.4-4.3,0-2.6,1.6-4.3,1.6-1.8,4.3-2v-1.6h2.3v1.6c2.4.3,2.4.3,3.9,1.7s1.5,1.4,1.9,3.7l-4,.5c-.3-1.8-.3-1.8-1.8-2.5V291c3.7,1,3.7,1,5.1,2.7s1.3,1.6,1.3,4.1,0,2.8-1.7,4.8-1.7,1.9-4.7,2.3v3h-2.3V305c-2.7-.3-2.7-.3-4.4-2s-1.7-1.7-2.2-4.8l4.1-.4a3.8,3.8,0,0,0,1,2.2A2.4,2.4,0,0,0,241.1,301.3Zm0-16.4a2.3,2.3,0,0,0-1.5,1,2.2,2.2,0,0,0-.5,1.7,1.7,1.7,0,0,0,.5,1.5c.5.7.5.7,1.5,1.2Zm2.3,16.6c1.1-.2,1.1-.2,1.9-1.1a2.2,2.2,0,0,0,.7-2c0-1.1,0-1.1-.6-1.8s-.6-.8-2-1.2Z" style="fill:#334f5a;fill-rule:evenodd"/><polygon points="28.5 305.3 28.5 286.3 21.7 286.3 21.7 282.4 39.9 282.4 39.9 286.3 33.1 286.3 33.1 305.3 28.5 305.3" style="fill:#334f5a;fill-rule:evenodd"/><path d="M41.4,294c0-3.5,0-3.5,1-5.8a7.8,7.8,0,0,1,2.1-3.2,6.6,6.6,0,0,1,3-2.1c2.1-.9,2.1-.9,4.9-.9,5.1,0,5.1,0,8.1,3.2s3.1,3.1,3.1,8.7,0,5.6-3,8.7-3.1,3.1-8.1,3.1-5.1,0-8.1-3.1S41.4,299.5,41.4,294Zm4.7-.1c0,3.9,0,3.9,1.8,5.9s1.8,2,4.6,2,2.7,0,4.5-2,1.8-2,1.8-6,0-3.9-1.7-5.9-1.8-1.9-4.6-1.9-2.9,0-4.6,2S46.1,289.9,46.1,293.9Z" style="fill:#334f5a;fill-rule:evenodd"/><polygon points="72.3 305.3 72.3 286.3 65.5 286.3 65.5 282.4 83.7 282.4 83.7 286.3 76.9 286.3 76.9 305.3 72.3 305.3" style="fill:#334f5a;fill-rule:evenodd"/><path d="M104.9,305.3h-5l-2-5.2H88.8l-1.9,5.2H82l8.9-22.9h4.9Zm-8.5-9-3.1-8.5-3.1,8.5Z" style="fill:#334f5a;fill-rule:evenodd"/><polygon points="107.6 305.3 107.6 282.6 112.2 282.6 112.2 301.5 123.7 301.5 123.7 305.3 107.6 305.3" style="fill:#334f5a;fill-rule:evenodd"/><polygon points="73.5 361.2 85.6 361.2 85.6 363.8 81.3 363.8 81.3 374.3 77.9 374.3 77.9 363.8 73.5 363.8 73.5 361.2" style="fill:#334f5a;fill-rule:evenodd"/><polygon points="87.3 361.2 90.7 361.2 90.7 366.2 95.7 366.2 95.7 361.2 99.1 361.2 99.1 374.3 95.7 374.3 95.7 368.8 90.7 368.8 90.7 374.3 87.3 374.3 87.3 361.2" style="fill:#334f5a;fill-rule:evenodd"/><path d="M110.4,371.9h-5.3l-.8,2.4h-3.4l4.8-13.1h4.1l4.8,13.1h-3.4Zm-4.5-2.4h3.6l-1.8-5.2Z" style="fill:#334f5a;fill-rule:evenodd"/><polygon points="116.4 361.2 120.1 361.2 124.9 370.2 124.9 361.2 128.1 361.2 128.1 374.3 124.3 374.3 119.6 365.3 119.6 374.3 116.4 374.3 116.4 361.2" style="fill:#334f5a;fill-rule:evenodd"/><polygon points="131.4 361.2 134.8 361.2 134.8 366 139.7 361.2 143.6 361.2 137.3 367.4 144.3 374.3 140 374.3 134.8 369.2 134.8 374.3 131.4 374.3 131.4 361.2" style="fill:#334f5a;fill-rule:evenodd"/><polygon points="149.8 361.2 153.5 361.2 156.5 365.9 159.5 361.2 163.2 361.2 158.2 368.8 158.2 374.3 154.8 374.3 154.8 368.8 149.8 361.2" style="fill:#334f5a;fill-rule:evenodd"/><path d="M170.1,363.4c-1.6,0-1.6,0-2.4,1.2s-.9,1.1-.9,3.2,0,2,.9,3.2.8,1.1,2.4,1.1,1.5,0,2.4-1.1.8-1.2.8-3.2,0-2.1-.8-3.2S171.6,363.4,170.1,363.4Zm0-2.4c3.1,0,3.1,0,4.9,1.8s1.8,1.8,1.8,5,0,3.2-1.8,5-1.8,1.8-4.9,1.8-3.2,0-5-1.8-1.8-1.8-1.8-5,0-3.2,1.8-5S166.9,361,170.1,361Z" style="fill:#334f5a;fill-rule:evenodd"/><path d="M179.4,361.2h3.3v7.9c0,1.6,0,1.6.6,2.3s.5.7,1.7.7,1.2,0,1.7-.7.6-.7.6-2.3v-7.9h3.4v7.9c0,2.8,0,2.8-1.4,4.1s-1.4,1.4-4.3,1.4-2.9,0-4.2-1.4-1.4-1.3-1.4-4.1Z" style="fill:#334f5a;fill-rule:evenodd"/><path d="M194.8,361.2H198v5l-.4,3.7h-2.3l-.5-3.7Zm0,10H198v3.1h-3.2Z" style="fill:#334f5a;fill-rule:evenodd"/><path d="M59.4,61.9V36.2H70.3c4.2,0,4.2,0,6,.7s1.9.7,3,2.4,1.2,1.8,1.2,4.1,0,2.9-1.7,4.8-1.8,1.9-5.1,2.4a10.1,10.1,0,0,1,2.7,2.1,20.8,20.8,0,0,1,3,4.2l3.1,5H76.3l-3.7-5.6c-2-3-2-3-2.8-3.7a2.6,2.6,0,0,0-1.5-1.1,5.9,5.9,0,0,0-2.7-.3h-1V61.9Zm5.2-14.8h3.8c3.8,0,3.8,0,4.7-.3a2.8,2.8,0,0,0,1.5-1.1,2.5,2.5,0,0,0,.5-2c0-1.3,0-1.3-.7-2.1s-.7-.8-2-1H64.6Z" style="fill:#334f5a;fill-rule:evenodd"/><polygon points="85.4 61.9 85.4 36.2 104.5 36.2 104.5 40.5 90.6 40.5 90.6 46.2 103.5 46.2 103.5 50.6 90.6 50.6 90.6 57.6 105 57.6 105 61.9 85.4 61.9" style="fill:#334f5a;fill-rule:evenodd"/><path d="M125.9,52.5l5.1,1.6c-1.2,4.2-1.2,4.2-3.9,6.2s-2.7,2.1-6.8,2.1-5.2,0-8.5-3.5-3.3-3.5-3.3-9.6,0-6.5,3.3-10,3.4-3.6,8.8-3.6,4.7,0,7.7,2.8,1.7,1.7,2.6,4.8l-5.2,1.2c-.4-2-.4-2-1.9-3.2s-1.4-1.1-3.5-1.1-2.9,0-4.7,2-1.7,2.1-1.7,6.7,0,4.9,1.7,7,1.8,2,4.6,2,2.1,0,3.6-1.3S125.3,55.3,125.9,52.5Z" style="fill:#334f5a;fill-rule:evenodd"/><polygon points="135.4 61.9 135.4 36.2 154.5 36.2 154.5 40.5 140.6 40.5 140.6 46.2 153.6 46.2 153.6 50.6 140.6 50.6 140.6 57.6 155 57.6 155 61.9 135.4 61.9" style="fill:#334f5a;fill-rule:evenodd"/><rect x="159.3" y="36.2" width="5.2" height="25.77" style="fill:#334f5a"/><path d="M169.5,61.9V36.2h8.3c4.8,0,4.8,0,6.2.4s2.2.5,3.7,2.5,1.5,1.9,1.5,5,0,2.4-.9,4a4.4,4.4,0,0,1-2.1,2.5,4.3,4.3,0,0,1-2.7,1.2c-1.9.4-1.9.4-5.4.4h-3.4v9.7Zm5.2-21.4v7.3h2.8c3.1,0,3.1,0,4.1-.4s1.1-.4,1.7-1.2a2.8,2.8,0,0,0,.5-2,2.6,2.6,0,0,0-.8-2.4c-.8-.9-.8-.9-2.1-1.1s-.9-.2-3.7-.2Z" style="fill:#334f5a;fill-rule:evenodd"/><polygon points="199.3 61.9 199.3 40.5 191.7 40.5 191.7 36.2 212.2 36.2 212.2 40.5 204.5 40.5 204.5 61.9 199.3 61.9" style="fill:#334f5a;fill-rule:evenodd"/></svg>